<svg width="38" height="15" viewBox="0 0 38 15" fill="none" xmlns="http://www.w3.org/2000/svg">
<path d="M1.49012e-08 15V13.68C0.306667 13.6667 0.56 13.6267 0.76 13.56C0.973333 13.4933 1.13333 13.34 1.24 13.1C1.36 12.86 1.42 12.4733 1.42 11.94V4.28C1.42 3.92 1.42667 3.57333 1.44 3.24C1.46667 2.90667 1.48667 2.65333 1.5 2.48C1.28667 2.49333 1.02 2.50667 0.7 2.52C0.38 2.52 0.146667 2.52667 1.49012e-08 2.54V0.999999H10L10.12 4.88H8.8C8.8 4.14667 8.67333 3.59333 8.42 3.22C8.16667 2.84667 7.85333 2.6 7.48 2.48C7.10667 2.34667 6.74 2.28667 6.38 2.3L5.66 2.32C5.38 2.32 5.14 2.36 4.94 2.44C4.74 2.50667 4.58667 2.66667 4.48 2.92C4.37333 3.16 4.32 3.54 4.32 4.06V7.54H6.38L6.3 5.82H7.84V10.68H6.52C6.52 10.12 6.43333 9.71333 6.26 9.46C6.08667 9.20667 5.84667 9.05333 5.54 9C5.24667 8.93333 4.92 8.90667 4.56 8.92H4.32V11.72C4.32 12.08 4.31333 12.4267 4.3 12.76C4.28667 13.0933 4.26667 13.3467 4.24 13.52C4.38667 13.5067 4.58 13.5 4.82 13.5C5.06 13.4867 5.29333 13.48 5.52 13.48C5.76 13.4667 5.92667 13.46 6.02 13.46V15H1.49012e-08ZM18.2258 10.18C18.2258 9.62 18.1391 9.22 17.9658 8.98C17.7924 8.72667 17.5524 8.56667 17.2458 8.5C16.9524 8.43333 16.6258 8.40667 16.2658 8.42L15.7458 8.44V11.72C15.7458 12.08 15.7391 12.42 15.7258 12.74C15.7124 13.06 15.6924 13.3067 15.6658 13.48H18.3458C18.7458 13.48 19.1324 13.3933 19.5058 13.22C19.8791 13.0333 20.1858 12.7333 20.4258 12.32C20.6658 11.8933 20.7858 11.32 20.7858 10.6H22.0858L21.9858 15H11.4258V13.68C11.7324 13.6667 11.9858 13.6267 12.1858 13.56C12.3991 13.4933 12.5591 13.34 12.6658 13.1C12.7858 12.86 12.8458 12.4733 12.8458 11.94V4.28C12.8458 3.92 12.8524 3.57333 12.8658 3.24C12.8924 2.90667 12.9124 2.65333 12.9258 2.48C12.7124 2.49333 12.4458 2.50667 12.1258 2.52C11.8058 2.52 11.5724 2.52667 11.4258 2.54V0.999999H21.4258L21.5458 4.88H20.2258C20.2258 4.14667 20.0991 3.59333 19.8458 3.22C19.5924 2.84667 19.2791 2.6 18.9058 2.48C18.5324 2.34667 18.1658 2.28667 17.8058 2.3L17.0858 2.32C16.8058 2.32 16.5658 2.36 16.3658 2.44C16.1658 2.50667 16.0124 2.66667 15.9058 2.92C15.7991 3.16 15.7458 3.54 15.7458 4.06V7.06H18.0858L18.0058 5.32H19.5458V10.18H18.2258ZM23.9063 13.68C24.2129 13.6667 24.4663 13.6267 24.6663 13.56C24.8796 13.4933 25.0396 13.34 25.1463 13.1C25.2663 12.86 25.3263 12.4733 25.3263 11.94V4.28C25.3263 3.92 25.3329 3.57333 25.3463 3.24C25.3729 2.90667 25.3929 2.65333 25.4062 2.48C25.1929 2.49333 24.9263 2.50667 24.6063 2.52C24.2863 2.52 24.0529 2.52667 23.9063 2.54V0.999999L29.7263 0.979999C31.0463 0.979999 32.1863 1.18 33.1463 1.58C34.1196 1.96667 34.9129 2.49333 35.5263 3.16C36.1529 3.82667 36.6196 4.57333 36.9263 5.4C37.2329 6.21333 37.3863 7.03333 37.3863 7.86C37.3863 8.67333 37.2396 9.5 36.9463 10.34C36.6663 11.18 36.2196 11.9533 35.6063 12.66C34.9929 13.3533 34.1929 13.92 33.2063 14.36C32.2196 14.7867 31.0263 15 29.6263 15H23.9063V13.68ZM28.2263 11.72C28.2263 12.08 28.2196 12.4267 28.2063 12.76C28.1929 13.0933 28.1729 13.3467 28.1463 13.52C28.2796 13.5067 28.4596 13.5067 28.6863 13.52C28.9263 13.52 29.1729 13.5267 29.4263 13.54C29.6796 13.54 29.8863 13.54 30.0463 13.54C30.7796 13.54 31.4063 13.3933 31.9263 13.1C32.4596 12.8067 32.8929 12.4133 33.2263 11.92C33.5729 11.4133 33.8263 10.8467 33.9863 10.22C34.1463 9.59333 34.2263 8.94667 34.2263 8.28C34.2263 6.92 34.0396 5.80667 33.6663 4.94C33.2929 4.07333 32.7663 3.42667 32.0863 3C31.4196 2.57333 30.6196 2.34667 29.6863 2.32C29.3663 2.30667 29.0929 2.34 28.8663 2.42C28.6529 2.48667 28.4929 2.64 28.3863 2.88C28.2796 3.12 28.2263 3.5 28.2263 4.02V11.72Z" fill="white"/>
</svg>
