<svg width="94" height="36" viewBox="0 0 94 36" fill="none" xmlns="http://www.w3.org/2000/svg">
<path d="M0.5 36V32.7C1.26667 32.6667 1.9 32.5667 2.4 32.4C2.93333 32.2333 3.33333 31.85 3.6 31.25C3.9 30.65 4.05 29.6833 4.05 28.35V9.2C4.05 8.3 4.06667 7.43333 4.1 6.6C4.16667 5.76667 4.21667 5.13333 4.25 4.7C3.71667 4.73333 3.05 4.76667 2.25 4.8C1.45 4.8 0.866667 4.81667 0.5 4.85V0.999998H25.5L25.8 10.7H22.5C22.5 8.86666 22.1833 7.48333 21.55 6.55C20.9167 5.61666 20.1333 5 19.2 4.7C18.2667 4.36666 17.35 4.21666 16.45 4.25L14.65 4.3C13.95 4.3 13.35 4.4 12.85 4.6C12.35 4.76667 11.9667 5.16667 11.7 5.8C11.4333 6.4 11.3 7.35 11.3 8.65V17.35H16.45L16.25 13.05H20.1V25.2H16.8C16.8 23.8 16.5833 22.7833 16.15 22.15C15.7167 21.5167 15.1167 21.1333 14.35 21C13.6167 20.8333 12.8 20.7667 11.9 20.8H11.3V27.8C11.3 28.7 11.2833 29.5667 11.25 30.4C11.2167 31.2333 11.1667 31.8667 11.1 32.3C11.4667 32.2667 11.95 32.25 12.55 32.25C13.15 32.2167 13.7333 32.2 14.3 32.2C14.9 32.1667 15.3167 32.15 15.55 32.15V36H0.5ZM46.0645 23.95C46.0645 22.55 45.8478 21.55 45.4145 20.95C44.9811 20.3167 44.3811 19.9167 43.6145 19.75C42.8811 19.5833 42.0645 19.5167 41.1645 19.55L39.8645 19.6V27.8C39.8645 28.7 39.8478 29.55 39.8145 30.35C39.7811 31.15 39.7311 31.7667 39.6645 32.2H46.3645C47.3645 32.2 48.3311 31.9833 49.2645 31.55C50.1978 31.0833 50.9645 30.3333 51.5645 29.3C52.1645 28.2333 52.4645 26.8 52.4645 25H55.7145L55.4645 36H29.0645V32.7C29.8311 32.6667 30.4645 32.5667 30.9645 32.4C31.4978 32.2333 31.8978 31.85 32.1645 31.25C32.4645 30.65 32.6145 29.6833 32.6145 28.35V9.2C32.6145 8.3 32.6311 7.43333 32.6645 6.6C32.7311 5.76667 32.7811 5.13333 32.8145 4.7C32.2811 4.73333 31.6145 4.76667 30.8145 4.8C30.0145 4.8 29.4311 4.81667 29.0645 4.85V0.999998H54.0645L54.3645 10.7H51.0645C51.0645 8.86666 50.7478 7.48333 50.1145 6.55C49.4811 5.61666 48.6978 5 47.7645 4.7C46.8311 4.36666 45.9145 4.21666 45.0145 4.25L43.2145 4.3C42.5145 4.3 41.9145 4.4 41.4145 4.6C40.9145 4.76667 40.5311 5.16667 40.2645 5.8C39.9978 6.4 39.8645 7.35 39.8645 8.65V16.15H45.7145L45.5145 11.8H49.3645V23.95H46.0645ZM60.2656 32.7C61.0323 32.6667 61.6656 32.5667 62.1656 32.4C62.699 32.2333 63.099 31.85 63.3656 31.25C63.6656 30.65 63.8156 29.6833 63.8156 28.35V9.2C63.8156 8.3 63.8323 7.43333 63.8656 6.6C63.9323 5.76667 63.9823 5.13333 64.0156 4.7C63.4823 4.73333 62.8156 4.76667 62.0156 4.8C61.2156 4.8 60.6323 4.81667 60.2656 4.85V0.999998L74.8156 0.949998C78.1156 0.949998 80.9656 1.45 83.3656 2.45C85.799 3.41667 87.7823 4.73333 89.3156 6.4C90.8823 8.06666 92.049 9.93333 92.8156 12C93.5823 14.0333 93.9656 16.0833 93.9656 18.15C93.9656 20.1833 93.599 22.25 92.8656 24.35C92.1656 26.45 91.049 28.3833 89.5156 30.15C87.9823 31.8833 85.9823 33.3 83.5156 34.4C81.049 35.4667 78.0656 36 74.5656 36H60.2656V32.7ZM71.0656 27.8C71.0656 28.7 71.049 29.5667 71.0156 30.4C70.9823 31.2333 70.9323 31.8667 70.8656 32.3C71.199 32.2667 71.649 32.2667 72.2156 32.3C72.8156 32.3 73.4323 32.3167 74.0656 32.35C74.699 32.35 75.2156 32.35 75.6156 32.35C77.449 32.35 79.0156 31.9833 80.3156 31.25C81.649 30.5167 82.7323 29.5333 83.5656 28.3C84.4323 27.0333 85.0656 25.6167 85.4656 24.05C85.8656 22.4833 86.0656 20.8667 86.0656 19.2C86.0656 15.8 85.599 13.0167 84.6656 10.85C83.7323 8.68333 82.4156 7.06667 80.7156 6C79.049 4.93333 77.049 4.36667 74.7156 4.3C73.9156 4.26666 73.2323 4.35 72.6656 4.55C72.1323 4.71667 71.7323 5.1 71.4656 5.7C71.199 6.3 71.0656 7.25 71.0656 8.55V27.8Z" fill="#A57526"/>
</svg>
