<svg width="30" height="30" viewBox="0 0 30 30" fill="none" xmlns="http://www.w3.org/2000/svg">
<path fill-rule="evenodd" clip-rule="evenodd" d="M26.8925 0.205239C27.2614 0.0235109 27.6651 -0.039166 28.0617 0.0237315C28.4582 0.086629 28.8332 0.272802 29.1474 0.562873C29.4617 0.852943 29.7037 1.23631 29.8485 1.67306C29.9932 2.10982 30.0353 2.584 29.9703 3.04625L26.585 27.083C26.2566 29.4016 24.0834 30.7312 22.2669 29.5763C20.7474 28.6101 18.4905 27.1214 16.4605 25.5681C15.4455 24.7906 12.3364 22.3008 12.7185 20.5291C13.0469 19.0142 18.2711 13.3217 21.2563 9.93735C22.4281 8.6077 21.8937 7.84066 20.51 9.06373C17.0725 12.1004 11.5573 16.7184 9.73326 18.0183C8.12421 19.1645 7.28535 19.3602 6.2823 19.1645C4.45234 18.8081 2.75522 18.2559 1.37007 17.5833C-0.50169 16.6747 -0.41064 13.6625 1.36857 12.7853L26.8925 0.205239Z" fill="white"/>
</svg>
