<svg width="30" height="30" viewBox="0 0 30 30" fill="none" xmlns="http://www.w3.org/2000/svg">
<path d="M15.0966 0H15.2635C16.8048 0.00800783 24.6147 0.0880866 26.7204 0.894208C27.357 1.14023 27.9371 1.61978 28.4027 2.28492C28.8683 2.95007 29.2031 3.77752 29.3737 4.68458C29.5631 5.69891 29.6962 7.04155 29.7862 8.42691L29.805 8.70451L29.8462 9.39852L29.8612 9.67613C29.9831 12.1158 29.9981 14.4007 30 14.8999V15.1001C29.9981 15.6179 29.9812 18.0577 29.8462 20.5988L29.8312 20.8791L29.8144 21.1567C29.7206 22.6835 29.5818 24.1997 29.3737 25.3154C29.2036 26.2228 28.869 27.0507 28.4033 27.7159C27.9376 28.3812 27.3573 28.8605 26.7204 29.1058C24.5453 29.9386 16.2779 29.9973 15.1322 30H14.8659C14.2865 30 11.8901 29.984 9.37746 29.8612L9.05869 29.8452L8.89556 29.8345L8.57491 29.8158L8.25427 29.7971C6.17289 29.6663 4.19089 29.4555 3.2777 29.1031C2.64108 28.8581 2.06088 28.3792 1.59521 27.7144C1.12954 27.0496 0.794762 26.2224 0.624414 25.3154C0.416276 24.2023 0.277517 22.6835 0.183761 21.1567L0.168761 20.8764L0.15376 20.5988C0.0612181 18.7901 0.00993787 16.9776 0 15.1642L0 14.8358C0.00375023 14.2619 0.0187512 12.2787 0.120008 10.0899L0.133133 9.81493L0.138759 9.67613L0.15376 9.39852L0.195012 8.70451L0.213763 8.42691C0.303769 7.04155 0.436902 5.69624 0.626289 4.68458C0.79635 3.77715 1.131 2.94931 1.59669 2.28405C2.06237 1.61879 2.64273 1.13949 3.27958 0.894208C4.19276 0.547202 6.17476 0.333659 8.25614 0.200196L8.57491 0.181511L8.89743 0.165496L9.05869 0.157488L9.37934 0.138803C11.1639 0.057055 12.9492 0.0116724 14.7347 0.0026694H15.0966V0ZM12.0008 8.56838V21.429L19.7956 15.0013L12.0008 8.56838Z" fill="white"/>
</svg>
